<svg width="32" height="32" viewBox="0 0 32 32" fill="none" xmlns="http://www.w3.org/2000/svg">
<path d="M29.1424 1.71436H2.85672C2.22458 1.71436 1.71387 2.22507 1.71387 2.85721V29.1429C1.71387 29.7751 2.22458 30.2858 2.85672 30.2858H29.1424C29.7746 30.2858 30.2853 29.7751 30.2853 29.1429V2.85721C30.2853 2.22507 29.7746 1.71436 29.1424 1.71436ZM25.8424 10.0536H23.5603C21.771 10.0536 21.4246 10.9036 21.4246 12.1536V14.9072H25.696L25.1389 19.2179H21.4246V30.2858H16.971V19.2215H13.246V14.9072H16.971V11.7286C16.971 8.03936 19.2246 6.02864 22.5174 6.02864C24.096 6.02864 25.4496 6.1465 25.846 6.20007V10.0536H25.8424Z" fill="white"/>
</svg>
