<svg width="14" height="14" viewBox="0 0 14 14" fill="none" xmlns="http://www.w3.org/2000/svg">
<path fill-rule="evenodd" clip-rule="evenodd" d="M8.16667 8.63343C8.16667 9.1489 7.7488 9.56676 7.23333 9.56676C6.71787 9.56676 6.3 9.1489 6.3 8.63343C6.3 8.11797 6.71787 7.7001 7.23333 7.7001C7.74667 7.7001 8.16667 8.11543 8.16667 8.63343ZM10.9667 6.3001C10.9667 5.78463 10.5488 5.36676 10.0333 5.36676H9.56667V4.43343C9.56667 3.81459 9.32083 3.2211 8.88325 2.78352C8.44566 2.34593 7.85217 2.1001 7.23333 2.1001C5.94467 2.1001 4.9 3.14477 4.9 4.43343V5.36676H4.43333C3.92 5.36676 3.5 5.7821 3.5 6.3001V10.9668C3.5 11.4822 3.91787 11.9001 4.43333 11.9001H10.0333C10.5488 11.9001 10.9667 11.4822 10.9667 10.9668V6.3001ZM5.83333 4.43343C5.83333 3.66023 6.46013 3.03343 7.23333 3.03343C8.00653 3.03343 8.63333 3.66023 8.63333 4.43343V5.36676H5.83333V4.43343Z" fill="#A7AEBB"/>
</svg>
