<svg width="33" height="33" viewBox="0 0 33 33" fill="none" xmlns="http://www.w3.org/2000/svg">
<g clip-path="url(#clip0_1_6223)">
<path d="M2.02672e-07 16.4994C0.000511378 13.2361 0.96892 10.0462 2.78274 7.33329C4.59657 4.62034 7.17433 2.50615 10.19 1.25811C13.2057 0.0100727 16.5238 -0.315748 19.7247 0.321858C22.9256 0.959464 25.8654 2.53185 28.1725 4.84016C30.4795 7.14846 32.0501 10.089 32.6855 13.2898C33.321 16.4907 32.9928 19.808 31.7424 22.8223C30.4921 25.8366 28.3757 28.4125 25.6611 30.2241C22.9464 32.0358 19.7554 33.0018 16.4916 33C12.1165 32.9976 7.92141 31.258 4.82882 28.1637C1.73623 25.0694 -0.000685029 20.8738 2.02672e-07 16.4994ZM15.8229 18.7013C15.5066 18.7388 15.1904 18.771 14.8754 18.8175C14.5604 18.864 14.2376 18.9091 13.9265 18.9879C10.0383 19.9611 7.30665 22.2917 5.73172 25.9797C5.64007 26.1927 5.73172 26.2934 5.85178 26.4212C9.27661 29.9487 13.4308 31.5028 18.3221 30.9387C21.827 30.5308 24.7652 28.951 27.1844 26.3915C27.2445 26.3412 27.2852 26.2715 27.2994 26.1944C27.3135 26.1174 27.3002 26.0377 27.2618 25.9694C26.8814 25.0219 26.3746 24.1301 25.7553 23.3183C23.7996 20.7807 21.2474 19.2667 18.073 18.8123C17.7722 18.7685 17.4701 18.7362 17.1693 18.6975C20.5322 18.2005 22.5564 15.2861 22.2685 12.3729C21.9651 9.31001 19.4285 7.0422 16.4245 7.09383C14.9751 7.11438 13.5858 7.67592 12.5294 8.6682C11.473 9.66048 10.8257 11.0118 10.7147 12.4568C10.4952 15.4577 12.615 18.2328 15.8229 18.7013Z" fill="#007BFF"/>
<path d="M15.823 18.7013C12.6151 18.2328 10.4954 15.4577 10.7148 12.4568C10.8271 11.0125 11.475 9.66226 12.5316 8.67103C13.5882 7.67979 14.9771 7.11911 16.4259 7.09899C19.4312 7.04736 21.9666 9.31517 22.2699 12.3781C22.5578 15.2912 20.5336 18.2057 17.1708 18.7026C17.4728 18.7413 17.7749 18.7736 18.0744 18.8175C21.2462 19.2718 23.7984 20.791 25.7541 23.3183C26.3735 24.1301 26.8802 25.0219 27.2606 25.9694C27.2991 26.0377 27.3124 26.1173 27.2982 26.1944C27.2841 26.2715 27.2434 26.3412 27.1832 26.3915C24.764 28.951 21.8258 30.5308 18.321 30.9387C13.4296 31.5079 9.27544 29.9539 5.8506 26.4212C5.72151 26.2921 5.63889 26.1927 5.73055 25.9797C7.30978 22.296 10.0414 19.9654 13.9254 18.9879C14.2365 18.9091 14.5566 18.8588 14.8742 18.8175C15.1918 18.7762 15.5067 18.7388 15.823 18.7013Z" fill="white"/>
</g>
<defs>
<clipPath id="clip0_1_6223">
<rect width="33" height="33" fill="white"/>
</clipPath>
</defs>
</svg>
